<svg version="1.2" xmlns="http://www.w3.org/2000/svg" viewBox="0 0 1920 1280" width="1920" height="1280">
	<style>
		.s0 { fill: #ffffff } 
	</style>
	<path id="&lt;Compound Path&gt; copy" fill-rule="evenodd" class="s0" d="m0 1112.46c0.22 0.09 0.34 0.2 0.67 0.2 3.96-0.75 5.58-3.13 8.2-4.67-2.62-1.84 1.45-3.73 1.67-5.47 4.69 0.45 8.76-0.99 13.06-2.38 0-1.1-0.22-1.89-0.78-2.44 2.4-0.19 2.84 1.44 1.5 2.44 6.48-1 12.22 1.93 15.63-1.2 2.73 0.2 4.68 0.95 8.09 0.55 0.89 0.85 0.78 2.28 2.39 2.39 8.59-1.35 10.44 2.08 17.24 0 2.63 0.64 3.52 2.38 6.59 2.38 1.95-1.29 6.25-0.99 6.47-3.57-1.79-0.8-5.36-0.35-6.47-1.75-0.79-2.98 3.4-2.18 3.29-4.82-5.14 0.85-9.1-3.18-14.84-3.72-0.62-3.38-5.24-4.02-8.09-5.86 0.33-2.09 1.45-3.73 3.29-4.73 1.11 0.21 0.11 2.19 1.56 2.29 0.17-0.3 0.17-0.55 0.84-0.55h0.11c-0.22-0.84-0.45-1.64-1.17-2.18-0.45-0.3-0.45-0.75 0-1 0.39-0.19 0.95-0.19 1.28 0 1.23 0.7 1.56 1.79 1.9 2.74 2.06 1.09 3.9 0.89 6.86 0.44 0.11 0.9-0.11 2.19 1.68 1.74 1.22-1.74 0.22-2.92-0.9-4.67-4.12 1.75-5.91-4.72-13.89-3.72-1.78 0.1-4.3 4.72-4.85 1.73 0.55-2.18 2.73 0.56 3.29-1.73-0.89 0-1.62 0-2.51 0-0.56-3.93 4.8-3.48 2.51-7.11 2.29-0.74 5.02-0.74 7.36 0-0.22 2.44 1.51 3.18 4.91 2.83 0.23-4.12-3.07-5.56-4.18-8.94 6.47-1.19-2.63-4.67 0-8.94 5.19-0.85 11.77-2.39 9.04-7.21 2.17 0.45 1.61-1.19 2.51-1.84-1.79-4.17-8.43-2.28-11.55-4.72-0.62-1.83 1.34-1.83 1.67-3.03-1.23-0.34-2.06-0.89-3.18-1.19-7.92 2.83-13.5-1.54-6.58-4.82 3.29-0.35 1.95 2.63 4.85 2.28 0.39-1.73 2.62-2.38 2.51-4.66 8.54 5.12 15.34-2.29 23.66-2.99-0.11-0.94 0.11-1.93 0.89-2.38 6.92 1.19 14.51-0.75 21.26 1.19-1.96-1.64-0.06-4.02 3.23-3.72 0.61 2.53 0.73 5.17 4.02 5.61-0.89 0-0.89 0.75-0.89 1.74 0.22 0 0.22 0 0.22 0 1.34-0.99 3.4-1.19 3.96-2.44 0.11-0.3 0.11-0.54 0.11-0.54h-0.11c-0.33-2.04-3.07-2.19-3.29-4.37 3.29-0.55 3.07-3.58 4.18-5.87 14.34 0.65 30.19-3.27 42.46 0 6.47-1.54 14.78-2.08 14.67 4.28-6.13 2.48-6.47 0.84-12.16 1.59 0.78 1.89 0 4.91 2.4 5.61 3.29 0 3.96-1.89 7.36-1.89-1.84-1.19 1.12-1.73 0.9-3.72 4.68-0.4 6.91-0.2 8.98 1.24 5.8-1.24 12.72-2.64 17.12-0.55 4.36 0.2 7.98-0.15 9.77-1.88-3.13-1.2-9.26-0.3-8.93-4.03 5.3-0.55 11.55 0.64 18.75-0.65l-0.17 0.2c0.39-0.1 0.72-0.29 0.95-0.29 0-1 0-1.64 0-2.44 2.62 0.45 7.14-0.4 8.76 0.45 1.45 0 3.01 0.35 4.29 0.74 0.23 0 0.23 0.25 0.23 0.45 0 0 0 0 0 0.35-0.23 0.19-0.56 0.19-0.9 0-1.06-0.55-2.17-0.55-3.51-0.55-0.17 0.74-1.62 0.55-2.29 1.09l-0.22-0.09c0 0.19 0.11 0.54 0.11 0.74 0 0.34 0 0.64 0.11 0.99 0.45 0 0.89 0.1 1.34 0.2 5.25-0.64 8.54 1.44 6.92 4.03-2.79-0.55-7.48 0.14-8.15-1.94-0.56-0.2-1.17-0.2-1.62-0.45l-0.55-0.1-0.34-0.34c-0.78-0.75-0.78-1.64-0.89-2.29 0-0.1 0-0.1 0-0.1-0.78 0-1.62 0-2.4 0l0.11-0.45v0.25c-0.33 0-0.55 0.2-0.89 0.2 1.67 0.55 1.9 2.28 1.56 4.03-0.45 1.08-3.85 0-4.07 1.19 1.34 2.18 4.29 1.43 1.62 3.72 1.23 2.44 6.69 1.45 7.36 4.18-9.99 1.83-16.79 1.64-31.13 0.64q0-1.5 0-2.93c3.18 0 6.03-0.25 7.48-1.24-1.23-0.65-3.3-0.65-4.19-1.84-2.12 0.45-3.74 1.19-4.85 2.38-3.07 0.7-5.69-1.84-7.31 0 1.06 1.45 2.85 2.64 3.18 4.82-0.56 1.2-4.52-0.09-4.85 1.2 1.11 3.48 5.8 4.47 6.58 8.39-0.67 1.24-4.57-0.19-4.91 1.24 0 1.5-0.45 3.48 1.62 3.48 2.84-2.28 7.7-0.44 6.47 3.73-6.36 1.59-10.55-3.28-14.56 1.2 1.95 0.29 2.73 1.73 2.4 4.12-10.99-2.83-18.3 0-27-1.2 1 1.55-2.51 2.39 0 2.93 0.11-2.18 1.45 0.16 2.4-1.73 1.78 0.79 3.01 1.89 4.96 2.53 3.63-0.99 8.09 0.65 13.05 0.4 2.85 0 5.14-1.2 8.09-1.2 2.46 0.25 5.08 1.64 7.48 1.99 5.69 0.45 10.77 0.2 15.45-0.79 3.52 2.63 12.72 1.09 18.02 2.44 1.4-0.46 1.62-2 3.3-2.44 1.17 0.99 1.39 2.63 3.29 3.08-0.79-1.84 1.17-1.84 2.39-2.29 0.12 1.1 0.56 1.84 1.62 2.29 0.11-0.45 0-1.1 0.78-1.19 1.46 1.93 7.81 1.93 10.77 1.19 1.17 1.84 6.59 0.74 8.87 1.74-0.11-1.39 1.34-1.94 2.51-2.38 4.3 5.76 23.49-3.83 27.56 2.72l0.11-0.09c0.12-0.25 0.34-0.35 0.62-0.25q0.33-0.01 0.33 0.34c0 0.46-0.22 0.65-0.5 1l0.39-0.15c3.18 1.2 7.03-1.19 9.54-2.28 0.23-0.21 0.45-0.45 0.67-0.85l-0.33 0.2c-4.91-1.54-8.76 1.54-10.6-2.29l0.22-0.35h-0.11c-0.78-0.64-1.12-1.29-1.68-2.28l-0.11 0.1c-1.17-1.19-5.46-1.84-3.29-3.58l0.11-0.25c-0.44-0.19-1.17-0.4-1.73-0.94-0.33-0.25-0.33-0.45 0-0.7 0.22-0.3 0.62-0.3 0.95 0 0.22 0.25 0.56 0.35 0.78 0.45 0.67-0.75 2.4-0.84 3.18-1.49-1.06-1.64-4.57-1.54-4.07-4.27 4.63-0.45 12.61 1.19 17.24 1.19 1.45 0 3.18-2.38 3.18 0-2.62 0.35-1.23 3.48-2.4 4.82-3.74-0.35-7.36-0.54-10.66-1.19-1.28 2.38 0.79 3.37-0.89 5.42 0.34 0.44 0.56 0.89 0.89 1.24v-0.16c3.63-0.19 14.73 0.8 16.35-1.73h0.34c-0.34-0.85-0.12-1.64 0-2.39 0.11-0.44 0.22-0.65 0.22-0.99v-0.1l0.22-0.1c0.33-0.25 0.67-0.45 1.06-0.54h-0.16c-0.23-1.64 0.16-2.64 2.39-2.44 1.51 0.15 0.67 1.79 1.51 2.28 0.11 0 0.11 0 0.11 0.16 1 0.29 1.79 1.08 2.46 1.73 5.58 2.83 10.59 8.05 19.69 4.92 1.34 3.83-2.29 4.22-2.51 7.1 2.73-0.14 3.74 1.3 4.96 3.48 4.69-0.79 4.35 0.55 8.99 0.65 3.73-1.19 0.33-1.64 4.8-1.64h0.11c0-0.2 0-0.45 0.11-0.74h-0.22c-0.12-3.93 5.07-3.83 4.18-8.45 4.52 0 4.3-0.2 8.98-0.4 2.01-1.34 1-4.72 5.75-3.73 0.16 2.64-0.78 4.28-1.68 6.02-1.45 0-2.73 0-4.07 0-0.45 2.73-2.62 4.02-2.51 7.3-1.62 0.99-1-0.2-3.18 0l-0.11-0.2q-0.34 0.28-0.67 0.65c3.51 1.83 5.74 0.29 11.33 0.54 0.44 1.74-0.79 2.39-1.46 3.39 0 0.09 0 0.19 0.12 0.34 6.69 0.55 1-5.46 6.25-6.7-1.29-3.39 0-5.02-0.9-8.95 5.08-3.03 13.95-3.58 18.13 1.74-0.78 3.82-0.56 6.16-3.29 8 0.78 2.18 1.84 6.56 0 10.13-3.85-1.19-8.65 0-9.87 0.45q0 1.79 0 3.58c2.95-1.59 4.29 2.98 4.18 3.72 4.35 0.45 5.24-1.74 8.09-2.48 1.12 0.55 0.22 2.48 1.67 2.48 5.69-0.44 9.99-1.93 12.28-4.92-2.01 0.35-1.79-1.09-4.19-0.39l0.11-0.25c-0.44 0-1 0.25-1.39 0.25-0.34 0-0.78 0-1.23 0-2.06 1.39-5.13 1.39-7.25 1.59 0-1.39-0.34-3.38 0.89-4.03 2.85-0.54 3.07 0.9 5.69 0.45l-0.11 0.1c0.67 0 1.23-0.1 1.79-0.1 0.27 0 0.5 0 0.83-0.1 2.12-2.28 5.86-0.1 8.15-2.28-3.85 0.74 1.39-3.53-0.89-3.53-0.79 0-1.01-0.4-1.51-0.55-1 1.64-1.79 3.53-3.29 4.82-2.68 0.35-3.07-0.74-4.97-0.74-0.22-3.18 1.12-3.83 0-6.56 3.07-1.19 4.41 0 8.26-0.45h0.17c-0.17-0.74-0.39-1.19-0.39-1.98-2.35-0.41-3.97-1.4-5.64-2.39-0.11-1.39-0.11-2.84 0.78-3.58 2.85-0.35 1.34 2.19 3.41 2.38 1.45 0.75 5.24-0.19 4.96 3.08-0.22 0.51-1.34 0.51-2.57 0.51 0 0.54 0.12 0.99 0.34 1.24 1.9 0.74 2.85 2.18 4.63 3.02 2.4-1.83 4.69-3.72 8.87-4.26 0.23-1.4-1.73-1.4-2.4-2.39 0.11 2.73-3.29 0.34-4.07 0-0.34 0-0.78 0-1.12 0-0.72 0.1-1.28-0.2-1.39-0.65 0-0.55 0.44-0.99 1.17-1.09 0.11 0 0.34-0.2 0.56-0.2 0.11-0.55 1.34-0.44 1.67-0.99-0.33-1.45-2.84-1.1-2.51-3.09 1.51-0.94 5.36-0.29 8.09-0.54 0.23 1.54 0.23 2.98-0.78 3.63 5.19 0.44 7.59 2.83 13.06 2.93-1.06 3.38 3.96 2.39 2.51 6.01-4.24 0.55-8.1 1.44-11.39 2.53-1.73-0.99-3.4-1.98-5.8-2.53-4.74 6.31-4.96 14.21-6.47 21.61 11.16 1.84 4.35-5.36 9.87-8.3 1.85 1.74 3.07 4.03 6.37 4.73 2.28-0.35 2.28-2.34 3.29-3.63-2.85-0.2-5.19-1-5.75-3.08 3.74-0.4 7.48-2.93 9.88-1.2-1.73-1.29 0.11-0.64 0.78-1.73 0.44-1.84-1.51-2.09-0.78-4.28 2.23 0 1.67 1.1 3.29 0-0.12-3.38 4.07-3.57 6.47-5.31 0-0.65-0.95-0.65-0.73-1.64 2.18-1 4.13-1.99 7.31-1.99l0.56 0.15c-0.45-0.54-0.67-1.34-0.67-1.79-1.84 0.7-5.69-0.75-5.69-3.13 2.62 0 6.02 0.4 7.36-0.45-0.33 0.85 1.01 3.38-0.67 3.48 0 0.55 0.23 1.1 0.56 1.64 7.14 5.27 4.69 11.03 2.62 18.79-1.11-1-3.62-1-4.91-1.75-1-1.64 1.84-3.08 0-3.18-3.4 0.8-4.18-0.1-5.74 0.8 1.89 4.47-2.18 6.51-2.4 10.58 1.34 0 2.62 0 4.07 0-0.22-3.08 4.3-2.73 5.69-4.72 3.07 0.1 3.96 1.99 6.59 2.44-2.07 1.84-4.19 3.77-4.19 7.05 3.63 0.99 0.89 4.17 3.29 6.66-2.95 0.89-2.84 4.27-0.72 5.02 2.17-2.58 7.75 1.44 8.98-1.94-1.68-1.74-6.47-0.89-7.36-3.08 2.95-0.55 6.8-0.4 5.68-4.13 1.68-0.99 5.92 0 5.75-2.53-0.55-4.77-6.92-5.56-10.66-8.3 4.47-1.49 1.18-4.22-0.77-5.86 4.63-3.63 10.88-5.01 14.72-7.85 0.4 0.74 0.84 1.29 1.62 1.84 0.45-2.18-2.18-2.73-0.89-4.28 0.78 1.45 2.01 2.54 4.96 2.44 1.4 3.68 2.07 6.86 5.81 7.85-0.34-0.24 4.8-3.53 5.69-0.8-2.29 3.18-5.36 7.76 0 6.66-2.85 2.29 0.11 3.53 0.78 5.92-4.74 1.54-7.7 4.12-11.55 6.11-0.28-0.99 1.23-1.54 0-1.74-1.06 0-2.85-0.25-3.18 0.54 1.79 1.64 3.96 3.04 3.29 6.41 0.22 0.16 0.56 0.35 0.89 0.45v0.1l-0.11-0.39c3.63-0.45 5.92-0.55 11.44-0.55 2.95 2.38 8.53 3.57 8.98 10.13-1 0.2-2.29 0-2.4 0.65 3.29 1.63-2.34 5.91 3.29 7.1 4.36-1.19 7.54 0 11.38 0.65 1.79-5.47-5.46-4.37-6.58-7.75 2.29-1.74 6.03-2.39 8.26-4.13 2.4 0.75 6.47 0.3 6.47 2.93h0.28c0.45 0 1 0 1.56 0.11l-0.11-0.11c1.23-1.08 3.29 0.55 4.07-1.73h0.23c-0.12-0.25-0.12-0.45-0.23-0.65-2.51-2.83-8.98-2.63-8.98-7.2 4.58-1.89 9.71-0.55 12.28-2.98-2.57-1.4-1.9-5.02-4.97-5.96-5.24-1.25-10.21 1.19-11.38 1.19-2.29-0.25-4.08-3.93-7.48-1.99 0-2.49 1.57-4.02 3.3-5.22-1.12-0.55-2.52-0.99-2.4-2.43 1.72-0.75 4.18-0.95 4.07-2.94-3.18-1.44-8.26-1.63-8.93-4.91 0.67-0.65 2.85-0.1 2.46-1.84 2.4-0.35 2.4 1.09 4.8 0.74 0.44-1.19 2.28-1.19 1.67-3.18 3.79 0.35 3.57 1.89 6.58 0 3.35 2.44 6.03 5.27 8.09 8.45 3.4 0 6.81 2.73 8.98 0v-0.25c-0.89-0.45-1.62-0.99-2.28-1.63l-0.12 0.24c-2.84-0.8-2.06-4.17-3.29-6.01 2.51-1.19 5.36-3.28 8.98-1.84-0.89-2.73 1.34-6.16 0.9-6.7-6.36 0.54-7.59-0.41-11.55 1.24 0 1.19 0 2.38 0 3.67-4.46-0.84-6.98-3.38-10.6-4.91 0-2.49 1.06-1.84 2.4-4.13-1.51-0.45-2.29-1.54-4.8-1.19 0 2.48-3.63 2.48-4.96 4.12-0.23 2.19-0.9 4.17-3.3 4.82-3.85-2.63-2.51-5.02-1.5-8.94-3.18 0-7.04-0.65-7.37 2.38-4.63 0.35-6.69-1.09-8.25-3.03l0.1-0.25c-0.1 0-0.21 0-0.33-0.1l-1.06-0.89q-1.84 0-3.51 0c-0.22-1.39 1.22-1.84 1.5-2.93h0.34-0.11c-0.4-0.45-0.62-0.65-1.06-0.85l0.11 0.2c-0.78 0-1.68 0-2.46 0-0.39 1.84 2.79 1.64 0.78 3.18-1.28 0-2.73 0-4.18 0 0.56-4.17-6.64-2.53-6.42-6.11 3.07-2.64 8.09-0.45 10.6-2.98 2.29-0.2 2.52 1.34 4.97 1.24 0 1.84-2.68 1.94-2.57 4.12 0.34 0 0.67 0.35 0.89 0.55q1.33 0 2.41 0c0 1 0 1.64 0 2.38l-0.23 0.16 0.67 0.64c3.63-0.55 3.63-0.25 7.81 0 0-0.8 0.67-0.8 0.78-1.34 0.34-1.39 1.51-2.39 3.29-2.39 0.12-1.44 3.52-0.2 4.8-0.64-2.06-2.19 0.45-5.12 3.18-5.81 0-0.55 0.12-1.1 0.12-1.64 0-0.4 0.55-0.95 1.22-0.95 0.67 0 1.17 0.4 1.29 0.84 0 0.25 0 0.35 0 0.55 0 0.55-0.12 1.2-0.23 1.64h0.11c1.23 3.18 6.36-1.94 3.63-3.92-1.73-0.35-2.74-1.29-3.63-2.09-3.29-0.2-5.35-2.38-2.39-4.13 2.06 0.21 4.29 0.55 4.18 2.39h-0.23c0.12 0.25 0.12 0.25 0.12 0.25 0.11 0 0.33 0.3 0.44 0.54 0.84 0.75 1.29 1.2 2.18 1.2l-0.11-0.25c2.28-0.74 4.29-0.74 6.58 0-2.18 3.38-2.29 6.01-2.4 9.64-4.18-0.89-2.84 2.38-4.18 3.58 6.36-0.2 7.47 3.37 8.98 6.55 7.36-2.18 19.86 3.38 22.93-4.82-3.63 0.46-4.57-0.94-6.59-1.73 1.46-2.83-0.55-4.67 1.68-6.56 1.73 0.34 7.98 0.55 5.69 0 4.91 1.24 3.85 3.52 8.2 5.91-3.07 3.73-11.04 12.77 0 12.03 0-0.9 0-1.99 0-2.99 6.7 0.16 2.96 6.11 0.78 7.9-7.03 0.85-11.82-1.98-14.67 0.55 3.18 1.84 5.02 4.67 4.02 9.49-3.91-0.45-4.8 0-9.54 0h-0.23v0.4c0 0.15 0 0.15-0.11 0.25l0.11 0.09c1.79 3.63-4.57 6.57-4.91 10.59 1.62-0.84 1.12 0.35 3.3 0 0-0.65 0-1.54 0-2.29 4.9 0.2 7.97-1.84 12.27 0 2.18-0.74 2.62-2.28 5.69-3.57 4.18 2.48 2.84 7.6 1.67 10.23-1.11 1.54-3.07-0.65-3.29 0.55 0 0.74 1.01 0.74 0.78 1.84 1.51-1.84 3.8 0.44 4.91-1.84-0.67-0.1-1.62 0-1.62-0.55 0.84 0 1.51 0 2.4 0 0-0.2 0.12-0.44 0.12-0.65-1.34-1.54 0.55-3.37-0.9-5.36 2.4 0.1 3.63-1.19 5.24-0.3 0.56-0.79 1.01-1.44 1.23-2.08 0.11-0.25 0.67-0.55 1.23-0.35 0.34 0.1 0.61 0.35 0.61 0.54 0 0.1 0 0.1 0 0.25-0.27 0.75-0.94 1.64-1.61 2.39 1.56-1.1 2.06 0 3.07 0.74 2.39-3.13 2.84-4.92 0-7.85 2.95-0.84 5.46 0.65 8.25-1.19 0-2.09-2.45-4.67-4.97-6.66 1.12 0 1.96-0.1 1.68-1.19 2.62-0.25 1.84 1.94 4.91 1.19-0.11-1.83-1.84-2.53-1.62-4.67 0.17-0.89 1.62-0.8 2.4-1.24q0-0.15 0-0.3c0-0.1 0.11-0.1 0.11-0.25h-0.11c0.11 0 0.11 0 0.11-0.2 0.11 0 0.11-0.1 0.23-0.1 0.72-1.43-4.64-5.02-0.34-6.36h0.11c0.11-0.09 0.11-0.39 0.23-0.64q0.16-0.68 0.33-1.2c-1.79-0.19-3.29-0.74-4.74-1.18 0.33-3.48-4.07-7.76-2.4-10.69 2.17-4.27 10.6-2.88 19.53-3.73 1.95 3.04 1.5 6.01 3.29 7.85 4.24 0.75 4.01-1.44 6.58-1.84 2.29 0.65 3.91 1.84 4.91 3.69-8.76 1.88-3.85 12.21-8.2 17.23-1.79 2.19-4.63 1.8-6.58 3.63-1.23 0-2.96 0.2-3.18-0.45l0.22-0.3c-0.67 0.3-1.01 0.75-1.23 1.4-0.33 0.35-0.56 0.89-0.78 1.34h0.11c0.11 0.95-0.89 1.19-0.89 2.38 3.12 3.38 9.65 4.13 13.94 6.56 2.74-1.98 9.88-0.55 13.06-1.89-3.85-3.48 4.52-5.11 2.51-7.05-0.33 0-0.56 0-0.84 0l0.12-0.25c-0.34 0.25-0.67 0.25-1.01 0.25-1.34 1.19-2.17 2.58-4.85 2.83 0.56-2.63-2.29-2.63-2.4-4.82l0.22 0.1c-0.11-0.3-0.22-0.55-0.22-0.75q0-0.8 0.67-0.79c0.56 0 1 0.25 1 0.45 0.11 0.34 0.11 0.34 0.11 0.54 1.96-0.2 3.8-0.09 4.69 0.45v0.1c0.45 0 0.67-0.1 1.01-0.1 2.84-1.64 5.57-3.83 8.86-3.63-0.22-1.29-2.84-0.94-2.4-2.83h0.12c-0.56-0.4-1.01-0.55-1.56-0.55-0.56-0.1-0.9-0.39-0.79-0.84 0.12-0.34 0.56-0.55 1.12-0.55 0.9 0.21 1.45 0.3 2.18 0.65 3.29 0 5.52-0.9 9.54-0.65 0.22 1.64 1 2.84 2.45 3.73l-0.11 0.1c0.56 0 1.17-0.1 1.73-0.25 0.11-0.65 0.34-1.19 1.56-1.09 0-0.1 0-0.2 0.11-0.3 0-0.55 0.62-0.99 1.29-0.9 0.66 0 1.11 0.35 1.11 0.9 0 0.1 0 0.1 0 0.1 0 0.35-0.11 0.55-0.11 0.89h0.11c3.18 1.94 10.77 0.75 9.88 5.87 0.55 0.35 0.89 0.89 1.17 1.34 0.11 0.2 0.22 0.39 0.33 0.74 0.11 0 0.11 0 0.11 0 0 0.21-0.11 0.21-0.22 0.45-0.22 0-0.39 0-0.61-0.24-0.23-0.21-0.34-0.56-0.56-0.75-0.22-0.45-0.56-1-1.11-1.1v0.1c-1.12 0-1.12-0.64-2.41-0.54-2.06 1.34-2.06 2.08-5.46 1.34l-0.11 0.2c-0.12 1.19-0.45 2.38 0.22 3.47 4.13 1.99 3.57 7.46 9.43 8.2 1.62-1.19 3.51-2.28 4.91-3.57 3.07-0.55 2.28 1.49 4.85 1.19 2.62-2.44 8.65-4.47 13.05-3.63 1.06 0.8 0.95 2.19 0.84 3.63 5.75 1.49 11.89 0.4 12.22-3.83-0.22-0.1-0.56-0.35-0.89-0.35-0.67-0.29-0.78-0.84-0.56-1.18 0.44-0.56 1.23-0.75 1.73-0.56 0.67 0.21 1.45 0.75 2.12 1.2l0.11-0.1c1.39 0 0.45 1.74 1.62 1.84 2.62-1.94 4.3-0.85 4.96-4.13 2.85 1 4.8-0.44 5.69-2.38 7.65 0.74 9.44-0.45 16.35 0.39v0.35c0.34-0.35 0.78-0.35 1.06-0.35 3.18-1.38 9.37-0.39 12.83-0.39-2.17-1.99 1.68-2.44 2.46-2.44-2.51 0.25-0.56-2.83-2.46-3.18-2.84 0.8-6.64 0.7-10.6 0 0.34-1.29 0.95-2.38 1.62-3.48h0.11c0-0.19-0.11-0.44-0.11-0.84-0.11-0.45 0.45-0.99 1.12-0.99 0.66 0 1.34 0.29 1.45 0.84 0 0 0 0.25 0 0.35 1.39 0 1.73 0.74 3.18 0.64-2.68-0.64-1.79-3.92 0-4.77 2.96-0.44 1.95 2.04 4.8 1.75 3.18-3.83 11.6-4.28 17.23-1.75 0-2.33 3.63-1.78 6.58-1.88 1.29 2.18-2.56 3.38 1.63 4.82-2.74 1.54-7.14 1.64-5.81 6.11-3.07 0.45-2.84-1.54-4.96-1.84-1.73 1.39-3.46 2.93-5.58 4.22 2.96 3.18 10.65 2.83 17.91 2.83 0.61-2.58 11.49 0.56 13.16-2.83-1.56-2.93 3.07-5.86 6.53-5.46-1.06 2.28-0.39 3.18-2.51 5.46 2.73 1 3.96 2.83 4.97 5.27 3.29 0.3 1.17-3.53 4.91-2.83 1.33 1.19-0.11 3.13 0.78 3.57 1.11-0.19 1.56-0.99 3.29-0.74 0.89 0.74 0.89 2.19 0.78 3.68 4.35 1.24 8.2 2.73 11.49 4.82l-0.11 0.19c0.67-0.09 1.12-0.3 1.79-1.29-0.12-0.74-1.01-1.09-0.9-1.93 5.25-2.34 13.06-2.88 17.13-5.92-2.57 0-3.85-0.79-4.07-2.38 4.35-1.44 7.14-0.9 12.27-0.8 1.01 1.54 0.22 4.03 2.4 4.37 1.01-1.44 5.52-0.09 5.69-1.98 1.12-1.84-2.51-0.4-1.51-2.39 2.85 0.55 4.19-1.39 4.91 0.8 1.34-0.8 3.18-1.34 4.86-0.99v-0.35c3.96-2.83-4.86-8.4 4.07-8.4 0.84 0 1.95 0.99 3.29 1.29-0.89 3.73-1.23 6.11 3.29 7.11 0 0.89-0.44 1.34-0.78 1.73h-0.22c0.45 0.8 0.78 1.74 1 2.44 1.29 0 0.39 1.74 1.62 1.84 3.63-0.1 2.85-3.48 8.26-2.29 0.95-0.79 0.95-2.18 0.72-3.72 3.74 0.64 6.14 2.29 7.37 4.91 4.74-0.99 8.14 0 12.27 1.1 6.7-1.29 8.03-7.11 14.73-5.47 0.33 1.54-1.45 1.54-0.89 3.18-7.48 0-4.19 7.95-10.55 8.95 2.01 2.38 4.85 4.02 8.99 4.82-0.23-1.19 1.11-1.19 1.56-1.99-1.12 0-2.18 0-3.29 0 0.55-4.57 6.35-5.22 2.62-10.03 1.22-0.75 3.29-0.75 3.96-1.75-0.45-1.43-1.95-1.64-1.56-3.72 3.51-0.1 6.8-1.1 11.43 0 1.84-1.1 1.84-3.38 4.8-3.48 1.12 1.84 6.14 1.09 5.86 4.02-5.97 1.99-15.96 0.45-13.95 6.66 1.73-0.3 2.29-1.39 4.91-1.19 1.67 1.84 0.22 4.92-3.29 5.91-1.51-0.44-6.03-1.79-7.31-0.44 3.63-0.55 0.61 3.37 3.07 4.56 0 0 0.11 0 0.22-0.19 0.62-0.55 1.18-1 1.18-1.74 0-0.35 0.33-0.55 0.89-0.55 0.33 0 0.66 0.3 0.66 0.55 0 1.19-0.89 1.93-1.67 2.38-0.11 0.2-0.11 0.2-0.22 0.2 3.85 2.19-2.62 2.98-2.62 5.57 3.96 1.09 3.07 5.81 5.8 7.75 3.51-0.95 6.92-2.39 11.44-1.2-0.56 3.18-0.23 7.01 1.61 8.95 1.9-1.19 3.85-2.29 5.75-3.48 3.07-0.65 2.4 1.44 4.91 1.09 1-3.28-2.07-5.36 0.89-9.58-2.23-2.99-7.81-5.37-11.55-2.44-1.06-2.49-3.62-0.1-5.69 0-0.67-2.93-6.8-2.19-6.58-5.86 3.63-2.19 7.59-4.08 10.66-6.66-1.01-1.99-3.63-2.83-4.08-5.36 2.4-2.19 7.7-2.54 10.66-4.13 1.39 1.59 5.24 2.38 7.36 0.39-1.56-0.74-3.62-1.29-3.29-3.57 3.57-6.01 11.5-1.99 16.29 0.74l0.12 0.25c0.33-0.25 0.66-0.45 0.89-0.79 0.22-0.2 0.44-0.3 0.67-0.45-0.12-0.2-0.12-0.39-0.23-0.65-0.11-0.54-0.33-1.09-0.56-1.54-1.95-0.09-0.77-2.48-2.39-2.83-2.96 2.44-8.26-0.84-8.99-3.67 0-2.19 2.85-2.29 4.02-3.63-1.28-4.82 5.52-3.83 5.75-7.75-1.12-0.2-3.74 0.54-4.07-0.45-7.81 0.25-16.02 0.89-23.83 1.64-0.33 1.44-3.51 0.54-4.01 1.74-0.11 1.44 2.28 3.82 4.01 5.46l0.9 0.25c0.55 0.1 0.89 0.45 0.89 0.85 0 0 0 0.24-0.11 0.24-0.23 0.41-0.89 0.95-1.68 0.75l-0.72-0.34c-0.78 0-1.68 0-2.57 0-2.29 0.54-0.45 4.17-4.02 3.62-3.85 0.64-1.11-3.62-4.96-2.83-0.78 1.19-1.29 2.83-1.51 4.67-5.96 0.35-9.26-3.93-12.33-3.48 1.01 1.54 2.01 2.93 0.78 4.72-4.07 0.65-10.09 5.32-13.05 0-0.11 0.74-1.28 0.65-2.4 0.65 0.22 2.19-2.62 3.92-3.29 7.2-2.29-0.45-2.07 0.75-4.19 0.4 0.68-1.59-1.28-1.59-0.72-3.58 0.95-1.19 4.69-3.63 3.29-4.67-3.51-0.89-1 2.84-4.07 2.29-1.79-3.28-5.47-5.02-9.88-6.56-4.74 2.83-9.98 0.54-10.65-4.18 1.11-1.29 4.07-1.29 3.29-4.22 2.62-0.45 2.51 0.95 4.18 1.2 0.56-0.35 1.4-2 2.4-2.44 1.45-0.4 8.04-0.95 7.37-1.2 0.56 0.25 1.62 3.93 3.29 4.82 3.07 1.75 4.24-0.34 6.58 1.84-1.9-0.09-2.62 0.45-2.51 1.75 1.95 0.34 1.51 2.18 4.02 1.98 1-0.45 1.9-0.74 2.51-1.19-0.61-5.12-6.75-4.38-6.53-10.93 6.03-0.65 1.28-6.11 8.2-6.56 0.34-1.49-1.56-1.39-0.89-3.03 3.74 0.74 6.47 0 8.98 0.54 1.34 2.29-2.06 1.29-2.4 2.49 2.12 0.25 1.56 3.52 3.96 4.72 2.4 0.2 3.52 1.19 5.92 1.19 1.56 1 0.45 3.58 3.18 3.58 2.51 0 2.01-2.04 2.4-3.58 3.62 0 4.07-2.39 6.58-3.47 1.45 2.28 5.08 2.92 9.04 3.47v0.2c7.97-0.95 16.4-1.39 24.43-1.74 0.12 0 0.12 0 0.12 0 0.66-0.64 1.22-1.64 0.77-3.13 3.91-0.79 2.74 2.28 5.7 2.28 1.95 0.21 3.4-0.34 4.07-1.08-1.68-1.35 0.11-1.99 0.84-3.09 3.4-0.09 2.9 2.63 4.96 3.63 1.62-0.89 1.4-2.83 4.91-2.43-0.34 3.18 0.22 8.94 4.86 10.18 1 4.22-6.25 4.67-7.37 8.94-3.18 0.21-6.02 0.21-8.2-0.54-2.12 1.93-1.34 3.82-3.29 4.92l-0.23-0.1c0.34 0.49 0.67 1.29 0.79 1.83 0.05 0.2 0.05 0.55 0.16 0.75v0.1 0.25c-0.16 0.54-0.72 0.74-1.17 1.09-0.11 0-0.11 0.1-0.22 0.1 2.4 0.75 11.94-1.83 15.45-1.19l0.22 0.54c0.34-0.44 0.79-0.64 1.23-0.89 0.45-0.2 0.73-0.64 1.06-0.84h-0.11c-0.61-2.63 7.36-4.08 13.06-4.08h0.33c-0.11-0.3-0.22-0.55-0.33-0.65 0-0.19-0.12-0.44-0.23-0.64-3.18-0.9-4.68-2.83-5.47-5.37 1.79-0.74 2.4-2.28 4.97-2.38 1.17 1.99 1.84 4.13 1.62 7.1h-0.34c0.23 0.45 0.45 0.65 0.56 1.1 0 0.1 0 0.29 0.11 0.29 1.4 0.8 4.3 0.25 3.74 2.34-4.07 1.84-9.2 2.84-10.66 6.66 5.81 0 15.68-1.99 20.43-2.44-0.23-2.93-1.12-2.73 0-5.46 3.62-0.3 9.87-0.75 12.27-3.48-3.41-2.49-8.26-0.2-9.77-3.73-0.78-2.18 3.52-3.82 0.79-5.46-3.41 3.82-13.06 4.92-16.35-0.4 7.75-5.17 23.43 2.38 24.55-8.54 5.69 0 4.85 4.81 10.65 4.81 2.29-0.64 4.58-1.44 7.37-1.84 1.61 3.58 0.94 9.25-3.01 10.69-0.51 0.65-1.29 1.44-2.29 2.19-0.45 0.3-1.18 0.3-1.62 0-0.56-0.21-0.56-0.9 0-1.1 0.72-0.74 1.51-1.44 2.06-2.08 0.11-0.11 0.11-0.11 0.11-0.11h-0.22q0-0.51 0-1.18c-1.84 0-2.4-1-4.91-0.55-2 1.29-1.11 7.5 0.84 9.58l-0.11 0.1c0.78 0 1.45 0.15 2.12 0.25 0.22 0.1 0.44 0.1 0.55 0.3 1.62-1.73 5.47-3.92 7.31-1.94l-0.11 0.21c0.67-0.21 1.34-0.21 1.9-0.21 2.17-0.54 4.57-0.79 7.14-0.25 0.5 0 0.84 0.46 0.84 0.9v0.35c-0.22 0.39-0.84 0.64-1.62 0.54-1.9-0.44-3.74-0.15-5.8 0.2-0.56 0.2-1.12 0.2-1.68 0.35-0.89 1.19-5.8 2.29-7.25 1.09l0.11-0.34c-0.73 0.34-1.39 0-1.95-0.2-0.33 0-0.45 0-0.78-0.15-3.29 1.34-5.36 3.53-6.36 6.56 5.58-0.85 13.95-0.2 12.27-4.67 2.96-0.55 1.45 2.48 3.29 2.83 3.96-0.45 3.63 3.18 8.15 0 0.95 2.19 1.73 4.37 1.62 7.31-2.18 0.09-4.13 0.19-4.02 1.73 1.28 1.34 2.29 3.08 4.02 4.28 3.29-0.65 4.07-0.65 7.36 0 4.3-2.64-0.44-5.57 4.07-7.76-1.67-0.79-1.78-2.38-1.67-4.37 4.41-0.35 5.58-2.93 10.66-2.83-0.79 5.21 7.47 3.92 9.76 7.2-1.34 1.29-3.07 2.39-4.07 4.13 5.69-0.75 6.13 8 9.87 4.82-1.5-1.19-4.41-1.19-3.29-4.28 4.63 0.15 7.47-1.09 13.06-0.54 2.61-0.75 2.95-3.03 7.36-2.38v-0.65c-3.52-1.35-1.45-1.35-4.86-3.48 1.23 1.94-2.84 0.2-2.5 1.59-2.85 0-3.74-3.13-5.7-0.4 0.11-2.18-1.23-3.28-4.07-3.18-0.33 0-0.56 0-0.89 0.1-0.95 1.89 2.56 3.28-0.73 3.08-1.67-1.64-5.74-1.54-5.74-4.37 1-0.64 3.51-0.45 5.74-0.45 0.23 0 0.51 0 0.84-0.1-0.22-1.44 2.34-0.64 2.45-1.89-2.23-2.28-1.11-3.38-2.45-6.5 1.9-1.45 2.12 0.94 3.96 1.19 1.68-2.64 5.91-3.38 8.26-5.37 0.83 3.73 0.94 7.65 3.24 10.29 3.23 0 3.84-1.99 5.74-3.09 6.02 0.1 9.09 2.99 15.57 1.2 2.95-3.03 3.17-8.05 6.47-10.78-4.86-3.83-13.28-5.02-16.35-10.14 0.78-0.15 1-0.55 0.89-1.24 4.24-0.2 10.94-0.85 13.06-4.22-3.74-4.82-12.83-1.99-18.02-4.18v-0.2c-0.22 0-0.56 0.2-0.78 0.2-2.29 0.25-2.63 2.09-5.81 1.74-0.11-0.74-0.83-0.95-1.61-1.19-0.34-2.19 2.95-1.54 2.51-3.58 2.06 0.1 2.84 1.19 4.07 1.84q0.17 0 0.34 0c0.22-0.2 0.38-0.2 0.61-0.2 1.23-1.24 3.96-1.34 4.74-2.98-1.84-0.3-1-2.74-3.18-2.83-5.02 1.19-19.3 1.19-25.44 1.63-1.23 2.1-0.67 3.18-1.67 4.38-2.96-0.99-4.69-2.83-8.09-3.58-1.96 1.19-3.85-1.24-4.08 1.19-1.61 0.11-1.61-0.89-2.51-1.19-1.67 0.75 0.34 4.13-2.51 4.13-1.89-1.64-4.51-2.74-8.14-2.94-0.45 0.95 2.4 2.39 0 2.94-2.29-2.74-3.52 0.89-8.09 0 0.22-2.94-3.63-1.54-7.37-2.39-1.22 1.39-3.4 1.84-4.91 3.03-3.07 0.55-1.34-2.39-4.07-1.84l-0.22-0.34-1.79 1.54c-1.28 1.43-4.79 1.43-7.86 1.83-1.12-0.64-0.34-2.93-2.4-3.03-2.35 4.03-12.33 2.63-12.33 8.4 1.34 0 2.9 0 2.46 1.19 0.66 1.74-1.57 1.2-1.68 2.44-3.4 0-5.58-1.1-7.31-2.44-0.22 1.54-1.9 2.19-4.85 1.89 0.22-1.89-1.84-1.89-1.62-3.73 0.73-1.19 3.57-0.79 3.18-2.93-0.78-1.79-2.57-2.98-5.75-2.98-1.84 3.63-6.8-0.64-11.38 0.55-2.4 2.18-0.89 7-6.47 6.65-2.29-2.18-0.56-4.22-1.67-6.65-1.73 0-3.29 0-4.91 0 0.33-3.38-4.08-3.38-5.69-5.32q2.09-3.64 4.01-7.2c7.15 0.39 6.48 6.86 12.33 8.39 4.58-0.44 5.81-3.37 10.61-3.62 0.33 1.19 0.33 2.53 2.45 2.43 2.4-0.15 3.9-0.8 3.29-3.08 3.24 2.28 7.2-0.35 10.6 0.65 1.45-1.39 2.23-3.38 0.78-5.32 3.63-4.07 6.25-1.64 14.67-1.89 0.56 1.19-0.83 3.93 0.9 4.18 1.45-0.7 2.06-2.09 4.96-1.74 1.73 1.39 4.13 6.95 7.31 3.57-2.06-0.19-3.4-1.19-4.91-1.83 1.4 0.1 2.06-0.35 2.4-1.35-2.62 1-5.36-0.19-6.47-2.18 2.51-1.84 7.36-1.84 10.66-3.13 2.39 1.29 4.18 2.93 6.47 4.37 6.35-0.25 9.31-2.88 17.07-1.89 1.23-0.99 0.78-3.18 2.56-3.72 5.25 3.18 11.61-1.94 14.68 0-3.18 3.97-1.12 7.2 4.96 6.16 0.95 0.94 0.61 2.58 3.29 2.38-2-2.18 5.36-1.44 6.36-3.37 0-0.26 0-0.26-0.11-0.26-2-1.19-5.19-1.73-5.41-4.22 1.34-1.34 3.07-2.53 3.96-4.17 1.95-0.3 5.36 0.99 9.09 1.09 0.9 1.54 2.01 2.93 2.41 4.92l-0.4 0.1c0.4 0.35 0.84 0.65 1.17 1.34v-0.25c2.01 1.89 0.57 0.25 3.3 0 9.98 1.89 14.28-1.94 23.71 0.65-0.23-1.3 1.23-1.3 1.61-1.84-0.83-1.99-4.46-1.84-4.01-4.92 1.61-1.64 5.35-1.84 8.98-2.28 1.73 1.29 2.17 5.91 4.91 4.67 0.22 1.99-1.4 2.73-0.84 4.91 0.62 0.9 3.68 0 3.29 1.64 0.39 0 0.73 0 1.18 0 0.55 0 0.89 0.35 0.89 0.8 0 0.3-0.34 0.65-0.89 0.65-0.79 0-1.4-0.25-2.07-0.25v0.15c-2.51 1.29 0.34 9.04-3.29 11.42-2.96 0.35-1.67-2.83-5.58-1.83 2.96 2.38-0.22 2.83-2.57 4.27 4.75 5.57 0.67 16.89 6.59 20.27-3.4 1.2 0.33 5.71 4.85 3.18 0.56 3.08-3.29 3.08-2.4 6.56 4.58 0.45 4.69 4.47 8.98 5.21 0-0.64 1.4-0.39 1.62-1.19 0.45-4.47-7.53-2.73-7.31-7.1h0.12c-0.12-0.3-0.23-0.85-0.45-1.2-0.22-0.44 0.11-0.99 0.72-1.08 0.56-0.21 1.34 0 1.57 0.44 0.22 0.55 0.33 0.89 0.44 1.29 3.4-0.55 5.58-0.74 7.42-1.94 0.56-0.25-0.95-1.44-0.83-1.73 0.67-1.54 7.02-3.29 4.07-6.56 4.35 0 7.75-0.8 8.98-3.09-6.92-0.84-11.77-1.73-20.53-1.73l0.11-0.2c-0.22 0.2-0.56 0.2-0.89 0.2-0.73 2.28-6.69 0.99-5.69-1.84 1.11-0.8 4.52-0.8 5.58 0q0.16 0 0.33 0c1.68-1.2 2.96-2.93 2.35-5.92 4.57-1.39 8.75-0.74 11.38-4.22 2.06 2.29 8.42 2.14 11.38 0.65 2.01 2.28 3.18 5.22 4.97 7.75 1.22-1.74 3.73-2.53 6.58-2.98 1.11 1.44 1.5 3.18 4.07 3.52-0.56-3.18-2.79-5.46-2.46-7.74-0.83 0-0.94-0.55-1.61-0.55 0.33 2.73-4.86 1.29-5.69 2.93 0.11-1.44-1.34-1.84-1.68-2.93 3.29-2.09 7.25-3.83 13.05-2.44 1.68 0.35-0.1 3.29 1.68 3.53 7.64-2.98 18.52-0.15 25.33-5.36 0.22 3.82 3.63 5.36 3.29 9.59h-0.33c0.11 0.25 0.22 0.69 0.33 0.99 0 0.35 0.11 0.74 0.22 0.99 5.47 4.92 12.95 8.3 20.15 11.78 5.52-0.65 8.92-1.2 14.72-1.74l0.22 0.2c0.23-0.4 0.45-0.65 0.73-0.75l-0.05-0.09c0-0.8 0-1.55 0-2.44-3.3-0.3-5.97-1.2-9.04-1.74-2.4-3.83-12.17-10.88 0-11.97 0.11 0.94-0.34 2.18 0.78 2.38 3.85-1.44 8.76 0.99 10.65-1.19-1.45-3.18-5.41-0.25-7.36-1.19 0-1.2 0-2.44 0-3.63 3.63-3.48 11.94 0.24 13.06-4.92 4.74-0.3 7.47 0.65 10.65 1.34-0.33-0.79-1-0.99 0-1.74 5.58 1.94 11.16 1.19 18.86 1.74 1.5 3.03 3.51 5.87 8.98 6.01 2.4-0.79 2.18-3.62 5.69-3.62 3.85 1.43 5.8 3.62 11.44 1.83 0.33-1.39-1.57-1.39-0.9-3.03 2.63-0.55 9.32-2.53 11.5 0.65 1-0.99 2.34-1.54 3.29-2.39-1.06-0.44-1.51-1.34-1.62-2.43 4.07-2.39 11.05-2.58 13.05-6.51 2.07 0.75 7.59 3.13 8.21 0 6.13 1.49 8.03 6.11 10.65 10.13 2.18 0.55 4.63 0.3 4.8-1.98-0.5-1.64-1.84-2.83-4.02-3.48 0.34-1.84 1.62-3.08 3.18-4.12 3.74 0 5.14 1.84 7.42 2.93-2.06 0.1-1.61 2.09-1.61 3.47 10.54 0.9 17.12-2.38 29.4-2.83 0.67 1.29 1.39 2.39-0.79 3.63 6.7-0.25 14.62 0.2 16.35-3.63-5.13-2.08-12.27 4.03-14.67-1.19 0.84-1.74 3.68-1.99 5.69-2.93 0-0.44 0-1 0-1.24h0.56c0 0 0 0-0.11 0-0.45-0.4-1.12-1.19-1.34-1.84 0 0 0.11-0.35 0.33-0.35 0.22 0 0.56 0 0.56 0.35 0.11 0.45 0.45 0.65 0.89 1.19 9.71-0.54 16.74-5.31 25.33-0.65-2.34 2.74 4.91 0.65 6.47 1.84-0.33 2.64-3.96 3.73-4.85 4.18 2.29 2.09-1.01 3.82-1.62 5.46h-0.11c0.11 0.11 0.11 0.2 0.22 0.55 2.74-1.74 3.07 1.64 4.69 2.39-0.45-2.74 2.17-2.39 3.29-3.73 2.06-1.94 1.67-4.57 3.18-6.41 1.68-1.74 5.25-3.18 7.48-4.28 1.72 3.73 5.24 2.74 10.54 4.28 0 0.55 0 1.19 0 1.64 0.06 0 0.17 0.1 0.17 0.2 0.33 0.45 0.67 0.74 0.89 1.19 1 0.25 1.34 0.89 2.23 1.1 1.28-0.75 0.28-3.48 3.24-2.94-0.62 2.29 1.78 2.29 3.29 2.94 2.46-0.85 6.3-1.55 9.04-0.55-0.23 5.36-6.7 5.36-5.75 10.18-3.68-0.99-6.86-2.43-13.11-1.79-0.22 1.54 1.51 1.24 0.84 2.99-5.47-1.2-4.58-0.25-9.77 0.54 0.67-3.53-2.51-3.53-5.8-5.36-0.11 2.83-4.07 2.93-4.07 6.01 4.3 2.18 6.92 5.31 10.65 7.75-0.33 1.19-3.18 0.44-2.39 2.49 1.05 0 0.78 1.08 1.61 1.08 1.68-2.18 2.24 0 4.08 0.8 3.07-1.99 6.69-0.64 10.65-2.53 1.51 1.19 7.76 3.18 8.09 0 3.29 0.35 4.52 1.98 6.58 2.93-2.06 1.98-7.25 1.54-5.69 6.01-1.45 0.25-4.29-0.55-4.85 0.45 0.67 0.54 1.45 1.29 2.01 1.99h0.34c3.62 2.18 10.71-1.24 11.49-4.83-1.01-1.73-2.74-3.18-3.3-5.36 3.19 0.45 3.96-2.39 6.48-0.65 0-0.54 0.11-0.99 0.22-1.19h-0.11c-2.96 0.65-1.12-2.18-1.62-3.47-2.01 0.09-3.18-0.16-4.07-0.65 0.33-2.09-0.45-3.43-0.9-4.82 2.12-0.45 4.08-1.1 6.81-1.19 0.22-0.16 0.45-0.25 0.56-0.55q0-0.36 0-0.65c-2.18-1.44-0.67 0.95-3.29 0.65-0.34-1.89-3.4-1.89-2.4-4.82 2.06-1.2 5.13-1.44 6.58-3.18 1.28 1.54 4.35 1.64 6.47 2.53-0.78 3.03-2.12 5.47-5.63 6.56-0.23 0.4-0.73 0.65-1.28 1.09l0.44 0.1c0 0.45 0 0.85 0 1.29 2.62 0.8 0.61-1.93 3.29-1.29 0.95 4.38-3.96 4.28-3.29 8.4h-0.33c-0.11 0-0.23 0.45-0.34 1.44 2.4 0.94 3.74 2.58 5.58 4.03 1.45-2.19-0.44-2.54 0-6.02 7.03-3.38 12.05 0.75 20.42 3.73-0.22 3.03-3.52 4.02-2.45 8.4-3.57 1.64-6.98 0-9.82 2.18 0.16 2.49 0 4.57-1.68 5.57 2.96 1.64 2.18 0.2 5.8 0 4.19 1.54 7.7 3.83 9.66 7.2 5.52-0.25 9.98 0.75 14.84-1.19-1.79-2.73-7.03-4.82-12.33-3.18-0.73-2.38-2.85-2.09-1.62-4.67 5.69-2.34 11.6 0.1 17.12-0.55 1.74 2.29 4.36 3.93 6.59 5.87 5.13-0.85 6.02 3.72 9.87 1.73-1-0.64-2.45-1.09-1.67-2.83 3.85 1.64 7.92 1.2 13.05 4.03-0.44 2.33-0.67 1.98-0.77 4.92 1.78-1.49 2.11 0.99 3.96 1.24 0-0.55-0.23-1-0.56-1.54v-0.35c-0.34-0.3 0-0.99 0.67-1.09 0.67-0.2 1.34 0 1.56 0.54l0.05 0.25c0.34 0.55 0.67 1.29 0.67 2.19h0.12c2.51 1.84 4.96 3.77 8.25 5.22 3.18-0.45 4.13-2.39 6.58-3.48l0.34 0.1c-0.11-0.35-0.34-0.55-0.56-0.9-0.11-0.2 0.22-0.39 0.45-0.54 0.17 0 0.5 0.15 0.5 0.24 0.11 0.3 0.11 0.4 0.34 0.55 0.89 0 1.56 0.2 2.23 0.55-0.23-2.64 2.18-3.28 0.72-5.36 0.56-0.21 1.56 0 1.68-0.56 2.17 0.1 2.73 1.45 3.29 2.94-1.23 2.18-2.74 4.07-3.29 6.46 0.67 1.99 4.79 1.19 5.69 3.18-2.07 1.09-6.48 0.54-5.69 3.57 2.4 0 4.57 0.55 6.47 1.2 0.67 1.78-2.73 0.79-1.68 2.98 6.09 1.39 7.93 6.21 9.88 10.78-5.36-0.45-3.07-0.45-6.58-1.74-0.45 5.66 5.07 8.1 2.45 13.76 2.29-1.54 0.34 0.3 1.62 0.55 3.85 0.45 11.32-3.83 18.02-1.19 2.06 1.73-1.34 3.38 0 4.12 4.8 0.9-0.22-2.18 3.23-1.64 3.52-0.75 2.24 1.89 4.08 2.43v0.11c0.55-0.11 1.56-0.25 2.51 0v-0.11c-3.29-4.91 3.62-7.74 10.65-8.54 2.29 0.8 3.07 2.73 6.48 2.43 0.33-3.08-4.41-5.26-7.37-4.07 0-3.48-2.07-2.73-0.73-6.11 3.91-1.64 7.54 0.35 10.61-1.74-1.18-3.72 3.84-2.83 3.29-5.91-1.06 0.69-3.07 0.69-4.13 0 1.62-2.39-0.45-2.83-2.46-3.78-2.62 0.5-2.84 2.68-4.01 4.22-4.41-1.94-5.64-4.47-9.43-4.77 0.84-0.35 0.72-1.98-0.45-1.78-0.11 0.44 0 1.09-0.78 1.09-1.95-2.73-9.2-1.49-9.09-5.86 3.18-1 1.62 1.73 4.13 1.19-2.51-1.99 4.63-0.25 4.07-3.63 0.67-2.49-3.18-3.57-4.91-2.38l-0.22-0.11c0.33 0.45 1.06 1 1.62 1.55 0.11 0 0.22 0.2 0.22 0.2 0 0.35-0.11 0.54-0.22 0.54-0.34 0.2-0.84 0.2-1.07 0-0.77-0.54-1.45-1.19-1.78-1.73l-0.22 0.09c-0.45-1.09-2.18-1.09-3.07-1.64-0.56-0.09-1.06-0.09-1.62-0.09h-0.56c-0.78 0-1.23-0.55-1.23-1 0-0.45 0.56-0.99 1.34-0.84h0.45c0.72 0 1.62 0 2.4 0.09l-0.11-0.09c1.11-1.1 4.91 0 4.91-1.79-2.85 0.24-5.02-1.39-8.21-2.38 0 0.99-0.55 1.53-1.61 1.73l-0.11-0.3c-1.01 0.4-1.68 0.65-2.35 0.95 0 0-0.11 0-0.22 0h0.22c0.78 1.44 0.34 1.34 0.78 3.63-8.53 0.99-12.72-1.45-13.83-6.01-0.11 0.09-0.22 0.09-0.45 0.09-0.17 0-0.5 0-0.73 0-1.67 0.1-3.95 0.1-5.29-1.39h-0.12c-4.01-1.44-6.8 0-8.08-3.63 1.28-0.44 2.17-1.19 3.73-1.64-0.89-0.54-1.56-1.19-2.12-1.19-5.69-1.54-12.5 0.99-16.34-1.99 1.11-3.38 2.78-5.31 1.67-7.74 1.11 0 2.07 0 3.18 0 3.85-2.59 7.03-1.75 12.27-1.2 4.86-2.83 5.3-7.05 5.69-11.98-1.05 0-1.28-0.99-2.39-1.08-5.36 0.74-8.54-0.46-13.06 1.08-2.62-2.72-12.27-3.92-11.49 1.84-5.41 0-3.29-4.12-4.85-6.56-1.18-1.83-2.96-1.83-3.3-3.02-0.67-1.99-0.22-4.18 0-6.02 4.41-0.25 5.64-2.73 9.77-2.93h0.22c-0.34-0.45-0.56-0.99-0.78-1.54l-0.23 0.3c-3.57-1.39 3.41-3.82 4.08-5.96-3.41 2.14-7.76-0.8-8.2 4.77-2.12 0.79-4.74-1.2-4.86 0 0 0.25 0 0.34 0 0.55l-0.33 0.24q0.67 0.29 1 0.65c0.11 0 0.23 0.1 0.34 0.19 0.11 0 0.22 0.35 0.22 0.46 0 0.09-0.11 0.34-0.33 0.44-0.23 0.2-0.78 0.2-1.12 0-0.22-0.1-0.34-0.35-0.45-0.44-0.05-0.11-0.16-0.11-0.27-0.2-1.9 0.2-3.3 0.94-4.86-0.26-0.45-2.38 1.45-3.18 2.51-4.66-2.73-2.73-10.6-1.35-11.49 2.38-2.96 0.45-3.07-1.29-5.69-1.19-0.45-2.73 1.5-3.73 0.84-6.56 5.41-0.45 3.73-5.12 4.85-8.4 0.67-1.73 3.85-2.93 1.62-4.27 9.03-0.99 17.57-3.03 24.6-1.19-1.23 2.93-1.23 6.31 0 8.94 4.46 0.65 5.69-1.29 7.31-2.83-2.4-2.38 1.56-4.37 0.89-7.31h0.11c-0.11-0.44-0.22-0.89-0.22-1.43 0-0.55 0-1.1-0.22-1.4-0.23-0.54 0.22-1.09 0.89-1.19 0.67-0.25 1.34 0 1.56 0.4 0.28 0.79 0.28 1.44 0.28 2.19 0 0.34 0.11 0.79 0.22 0.99 4.86 5.02-0.61 11.57 5.64 16.04 1.84-1.83 4.8-2.72 6.47-4.66-1.34-4.53 4.79-2.64 5.69-0.8-1.23 0.45-2.01 0.99-3.29 1.2 3.73 1.33 9.2 1.33 9.87 4.91-2 1.45-3.62-0.54-6.58 0-0.67 4.03-5.69 5.02-9.09 7.21 7.08 0.25 13.67 7 9.09 10.18 0.22 0.65 0.89 0.95 1.62 1.2 2.56-0.16 1.34-2.99 4.96-2.44 3.52 3.82 4.91 9.19 8.87 12.57 0 1.3-2.17 0.65-1.5 2.38h-0.23c0.11 0.25 0.23 0.46 0.28 0.8 5.3 0 7.48 3.48 4.74 5.86-7.36-1.29-13.61 0-16.34 4.72 0.89 3.48 4.97 4.47 6.58 7.21-4.8 1.39-0.11 8.6 4.97 8.49l-0.12 0.25c0.12 0 0.17 0 0.29-0.14 0.33-0.11 0.77-0.3 1.22-0.4-1.51-2.44 2.18-2.89 3.4-4.63-1.56-2.28-3.96-1.73-6.58-2.38-0.78-2.18 2.85-1.19 3.29-2.38-1-2.63 5.14-4.82 8.2-6.56 1.34 2.48 3.02 4.57 2.46 8.49-3.29-0.3-4.97 4.57-1.67 5.27 0.22-1.64-1.29-1.24 0-2.44 2 1.2 5.18 1.55 8.98 1.2-0.11 2.98-4.35 3.83 0 5.46 4.96-5.46 13.16-4.92 18.91-0.54l-0.11 0.24c0.61 0 1.28 0 1.84 0 1 0.21 1.73 0.21 2.51 0.1 1-1.19 4.74-1.29 7.92-2.18v0.1q1.75-0.15 3.41 0l-0.12-0.1c1.18-0.1 1.62-0.89 3.3-0.54 1.06 0.64 0.77 2.53-1.57 2.38l-0.33-0.1c0.22 0.34 0.44 0.44 0.89 0.79 0.34 0.3 0.67 0.55 0.89 0.75l0.12-0.2c2.84-1.99 5.8-3.83 7.41-6.56-3.17-1.44-10.48 0.2-9.87-3.63 1.12-1.84 3.74-2.38 4.96-4.22-2.28-0.55-4.18-1.34-6.58-1.79 0-0.74 0-1.64 0-2.48 5.58-1.89 7.7 2.73 13.06 0 0.67 1.74 2.73 4.37 5.69 2.48 1.22 0.9 0.78 3.08 2.51 3.63 2.34-0.65 2.79-2.39 3.18-4.28-2.18-1.54-4.02 0-6.47-1.83 2.45-5.47 9.76-1.89 17.13-1.64 1.56-2.63 4.29-4.27 6.58-6.11 1.56 1.93 3.85 3.57 4.07 6.56-1.56 0.29-3.51 0.29-3.18 1.73-6.03-1.98-7.7 2.29-9.09 4.38 4.12-2.84 9.31-1.89 12.27 0.39 1.5-2.48 3.74-2.03 7.42-1.04 1.01 4.57-2.06 6.31-3.24 9.24 0.06 0.25 0.06 0.25 0.17 0.25 3.07-0.7 4.41 0.3 8.82-0.45-0.23 1.29 0.11 2.19 1.61 2.29 2.63 0.35 3.52-3.28 4.97-0.54-2.46 1.18 0.22 3.72 0 5.36-3.74 2.38-10.54-1.1-11.55 3.03 5.3 1.64 10.55 3.38 16.35 0-1.28-1.19-2.96-2.29-3.18-4.22 0.22-1.34 0.89-2.54 1.56-3.63 3.63-0.35 4.57 1.09 6.58 1.84 0 4.27-0.67 8.19-4.18 10.18 1.73 1.94-2.4 7.6 1.73 8.95-0.5-3.48-0.62-4.37 0.78-7.11 3.07-0.65 1.23 2.19 4.07 1.74-0.78-2.39 2.74-1.94 4.19-2.93 3.79 4.37-2.35 10.13-2.46 10.68 3.85-3.38 2.46 3.83 6.47 5.46 1.68 0.75 3.18 0.35 6.47 0.55 2.74-1.98 0.12-4.12 1.68-6.56-2.12-0.99-4.63-1.39-4.97-3.57 3.85-3.73 11.66-8 18.02-7.75 0.67 2.38 2.07 5.86 3.29 9.49-0.22 1.39-1.67 1.64-2.45 2.38 0.22 2.28 2.57 4.92 0.78 6.66 3.85 1.54 6.58 6.56 11.55 5.37-1-1.74-2.57-3.18-0.89-5.37-1.23-0.65-3.63-0.55-3.29-2.39 4.29-3.62-0.45-6.46-0.79-11.37 3.3-3.83 14.51 0.35 12.28-1.84 3.4 0.64 4.41 3.27 8.14 3.62 0.67 4.58-4.07 5.02-6.47 7.21 1.12 0.64 1.62 1.59 2.4 2.38h-0.22c0.67 0.45 1.23 0.75 1.78 1.19h0.11q1.25 0 2.4 0c0.78 0.75 2.62 2.39 4.19 3.48 0.95 0.9 5.24 2.19 8.98 2.64 6.7 0.19 11.94-0.55 15.57-1.29 1.22 1.48 3.06 2.48 5.69 2.93 5.18-1 12.16-0.45 14.72 4.27 2.51 0.1 4.8 0 5.69-1.19-1.11-0.79-1.11-2.89 0-3.53-3.62-0.2-3.62-3.03-5.69-4.37-2.45 1.89-2.9 1.44-6.58 1.89-0.56-1.89 1.4-1.74 0.73-3.63-1.17 0-1.96-0.45-2.29-1.09q-0.5 0-1.01 0c-0.22 1.09-2.95 0.24-4.01 0.44 0-0.74 0-1.44 0-2.28 1.39-0.1 2.51 0.1 3.29 0.54l-0.11 0.3c0.83-0.3 1.73-0.3 2.62-0.19l-0.11-0.11c-0.23-0.79-1.12-1.19-0.78-2.38 4.29-0.69 4.29 2.04 7.36 2.38 1.39-0.44 1.28-1.74 2.4-2.38 0.78 1.29 3.63 0.94 4.97 1.84 1.28 2.48 0.22 6.95 4.01 7.85 5.08-0.35 5.53-0.65 9.04 0.45-1.11-0.8-1.11-2.84 0-3.63 7.08 1.09 13.11 2.83 18.08 0 0.22-2.94 4.29-4.47 4.79-7.75 2.8-0.4 3.52 0.79 4.97 1.24 1.4-2.44 6.02-2.44 6.58-5.46-2.95 0.19-2.73-1.99-4.96-2.44-3.91-6.11-3.52-8.05-13.06-7.85-0.94 1.54-2.73 2.18-3.29 3.72-2.29 0.55-2.17-0.79-4.02-0.54-1.78 1.09-4.07 1.83-4.18 4.12 0 0.25 0.11 0.45 0.22 0.89v0.11c0 0.1-0.22 0.34-0.55 0.34-0.34 0.1-0.67-0.1-0.67-0.34-0.11-0.45-0.23-0.75-0.34-1h-0.28c-10.1-1.94-16.45 2.64-22.82-1.74 1.4 0 1.84-0.64 1.51-1.84-2.85-1.54-7.98 0.85-8.98-0.54 2.84-1.19-2.4-1.44-2.4-2.38-0.11 0.39-0.89 0.74-1.56 1.19 0 0-0.12 0-0.23 0.19-0.22 0.35-0.44 0.55-0.66 0.9h-0.12l0.12 0.1c3.17-0.65 2 1.74 4.07 1.74 2.12 0.2 5.58 0.64 3.18 2.93-1.06-1.49-8.99 0.99-9.65 3.63-3.74-1.35-7.65-0.11-8.99 1.83 3.3 0.25 9.1-0.19 7.26 3.63-3.63-0.99-7.48 0.4-12.22 1.19-1.28-1.44-2.18-2.83-0.73-4.82 1.06-0.19 4.13 0.8 4.02-0.44-2.06-2.74-6.53 0.25-8.09-2.39-0.45 0.45-0.89 0.75-0.89 1.29 0 0.35-0.22 0.35-0.45 0.35-0.33 0-0.5 0-0.5-0.35 0-0.84 0.62-1.29 1.39-2.18l-0.55 0.15c-2.52 0.39-2.52-1-3.91-1.2 3.07-4.72 0.84-14.65-9.87-10.18-2.57-0.74-0.9-4.47-1.68-4.77-1.28 1.59-2.06 0.64-4.91 0.55-0.89 1.84-4.52 3.92-7.36 2.28 3.07-2.98 0.11-4.72 0-9.39 3.18-1.44 6.02-2.98 8.98-4.37-2.73-5.47-13.05-1.54-18.86-4.72 0.34-1.2 0-2.04-0.44-2.74-0.34 0-0.78 0-1.23-0.29-0.39 0-1.17 0-1.73-0.25-0.22-0.2-0.34-0.4-0.22-0.65 0.11-0.29 0.56-0.29 0.78-0.29 0.44 0.29 1 0.29 1.51 0.54 0.44 0 1 0 1.33 0.2 3.85-1.98 5.02-5.67 9.1-7.3l0.33 0.09-0.22-0.34v-0.1c0.11-0.65 0.56-1.29 1.56-1.94-3.74-0.45-6.25 0.2-9.15 0.4-0.72-1.29-2.84-1.84-2.4-4.13 1.9-1.84 7.48-4.12 9.88-3.57-2.18 1.19 2.4 2.38 4.07 2.93 0 1.64 0 3.38 0 4.77-0.33 0-0.56 0-0.89 0l-0.23-0.3c-0.94 0.55-1.5 1.19-1.61 1.74 1.72 0.1 2.95-1.74 2.73 0.45-0.67 0.09-1.67 0.09-1.67 0.55 4.29-0.35 1.56 4.47 5.74 4.26l0.23 0.1c-0.23-0.99-0.34-1.88-0.23-2.53 0-0.45 0.39-0.65 0.84-0.65 0.45 0 0.78 0.2 0.78 0.65 0 0.35 0 1.19 0.34 1.99 1.95 1.94-1.01 5.56 3.73 6.41 0-2.74 3.52-7.51 3.3-11.43 0-1.44-2.29-2.19-0.79-3.52-0.44-0.3-1.11-0.65-1.61-1.3-0.12-0.2-0.12-0.55 0.11-0.55 0.17 0 0.5 0 0.61 0 0.56 0.75 0.89 1 1.56 1.2 0 0 0.12 0 0.12 0.35v-0.35c1.72 0.44 2.28 1.54 4.91 1.19 2.34 3.93 5.8 8 13.05 6.56 2.62-2.19 3.96-5.47 8.98-6.02 1.45 0.9 0 3.64 2.46 3.64 1.28-0.55 1.73-2 4.13-1.65 3.28 1.1 4.18 2.09 4.07 4.67 6.69-1.09 7.03 4.72 12.27 5.37 5.19-2.38 11.66-1.19 13.84 3.08h-0.12c0.12 0.1 0.12 0.1 0.23 0.1 0.89 0.2 1.84 0.55 2.4 1.09v-0.15c2.34-0.2 2.84-1.59 3.29-3.48-6.14-0.64-7.31-3.27-13.17-3.02-3.29-7.56 8.59-8.75 11.55-13.77h0.23c-0.23-0.44-0.34-0.99-0.34-1.54 0-0.19 0.22-0.35 0.56-0.35 0.22 0 0.5 0.25 0.39 0.35 0.11 0.35 0.11 0.89 0.22 1.1 3.29 0.99 10.99 3.62 6.25 4.56 3.29 0.46 2.9-1.93 6.58-1.08 1.34 0.99 2.79 2.08 4.08 3.07 3.06-0.24 5.07-0.24 5.69-0.79 0-0.2 0-0.74 0-1.2l0.11 0.16c-0.11-0.35-0.23-0.8-0.34-1.1q0.01-0.2-0.05-0.35c-0.45-0.44-0.78-0.44-1.34-0.64h-0.11c-1.79 0-2.29 0.85-3.07 1.39-0.89-1.39-1.68-4.23 3.18-4.23 0.67 0.21 0.89 0.4 0.78 1.2v0.2c0.61 0 1.06 0.24 1.73 0.44 0.56 0 1 0.55 0.78 1.2h-0.22c0.11 0 0.11 0.44 0.22 0.54 0 0.25 0.22 0.45 0.34 0.65 1.84 0.35 8.53 0.89 10.32-1.84-2.68-4.67 6.69-4.12 8.08-8.94-9.98 0.99-12.27-3.83-16.23-7.21-0.33 1.39-2.17-0.89-3.29 0.65-1.12-1.84-2.51-3.48-3.29-5.46 1.22-1.84 2.62-3.58 4.85-4.93-5.08-2.38-11.66-2.83-13.83 1.35 5.24 3.03 11.82 11.02-3.3 10.23 0.34-1.39-1.56-1.39-0.89-3.03h-2.4c-0.11 2.58-2.62 3.58-4.63 4.57 0 0.2 0 0.2 0.11 0.2 6.25-1.19 7.92 0.8 12.72 2.98 0 2.29-2.06 3.03-3.29 4.23 1.01 0.99 2.79 1.54 2.46 3.62-2.85-0.25-2.96 1.74-5.75 1.74-3.29-2.39 2.9-4.82 0.78-6.56-2.51 0.99-4.35 0.25-7.31 0 0 0.9-0.33 1.34-0.78 1.89-5.52 0.4-12.1-1.09-17.24-0.69-4.3 0.34-9.54 3.82-11.38 0 2.29-3.93 7.08-2.59 9.76-6.52-2.84-0.24-3.51-1.88-4.96-3.07-0.11 0-0.45 0.19-0.78 0.19 0.45 4.72-3.57 6.01-8.99 6.36-2.17-2.53-2.28-4.37-0.77-7.75 4.51 0.2 3.28-3.47 7.25-3.73 1.56 1.64-0.78 3.09 1.78 4.38l-0.11 0.2c0.73-0.4 1.4-0.65 1.84-0.65l-0.22-0.2c0.44-3.18 6.02-2.53 7.47-4.81-2.12 0.24-2-1.3-3.29-1.75 0.34-2.53 4.19-2.53 4.8-4.82-0.33-1.93-3.07-2.18-3.18-4.22 2.01-1.09 2.01-3.63 0-4.72 0.89-0.1 2.35 0 2.46-0.64h0.22c-0.11-0.35-0.22-0.75-0.22-1.2-4.41-1.54-5.53-1.73-9.04-4.27-1.4 1.54-1.28 1-3.29 0 0.22 0.79 1.45 1.54 0.11 1.74q0 1.18 0.67 1.99c5.19 0.99 8.25 3.03 8.25 6.41 0.12 0.99-1.89 1.54-2.45 2.53-0.61 1.19 1.78 2.83-0.73 2.38-0.78-2.18-3.51 0.45-5.85 0.7-3.52 0.2-7.87-1.44-12.17-0.7-0.67-2.03 1.46-2.58 0-3.67-9.09-0.25-11.38 4.57-12.27 10.24-5.24-1.55-3.96 0-8.98 0.64-2.01-1.19 1.28-2.93-0.89-4.22-1.51-0.15-1.74 0.74-3.18 0.64-2.07-2.93-2.63-4.82-0.9-8.54 2.96-1.4 6.81 0.89 8.26-1.19-3.4-1.1-4.85-3.58-8.26-4.68-3.4 0.55-1.61 4.68-4.01 5.87-8.93 0.69-14.4-6.22-22.93-1.59 3.4 3.67-3.63 7.2-5.75 9.49-5.36-0.25-6.53 0.1-9.82-1.74 2.62-3.98 3.79-5.17 6.59-8.55-2.8-0.99-1.23-3.83-0.9-6.01-2.01 1.44-7.36 2.73-10.54 1.19-0.78-3.77 4.07-3.68 5.69-5.86-4.58-3.28-8.54-6.91-12.28-10.83 1.96-0.2 1.9-1.65 0.9-2.39 3.85 0.74 6.69-1.44 8.98 0 5.35-6.01 19.86-5.36 27.73-9.59l0.33 0.2c0.11-0.74 0.67-1.19 1.01-1.64 0.11-0.35 0.22-0.35 0.33-0.54-0.45-1.74 0.56-2.64 0.78-3.93 2.62-0.1 2.85 1.44 3.29 2.93h-0.11l0.34 0.15 0.11 0.2c0.5 0.54 0.5 1.19 0.5 1.74l0.11 0.2c0 0.45-0.44 0.69-0.83 0.69-0.56 0-0.9-0.24-1.01-0.54v-0.35c0-0.2 0-0.55-0.22-0.99-0.34 0-0.9 0-1.34 0l-0.34-0.1c-0.05 0.34-0.27 0.64-0.61 0.99-0.22 0.2-0.56 0.65-0.67 0.99 1.23 1.65 1.51 4.03 4.91 4.38 0.22 4.02 2.23 8.59-1.62 11.77 2.29 4.57 7.03 4.37 8.98 9.59 5.7-0.64 6.36 5.12 11.44 2.93 0.84 4.82 9.76 3.73 14.79 5.62-0.34-1.24 1.11-1.24 1.5-1.89-2.96-1.54-0.28-4.67 1.68-5.87 2.73 2.14 7.47 1.2 11.38 3.48 0-0.09 0-0.09 0-0.09-0.51-0.8-0.84-1.45-0.84-2.44-3.07-0.2-5.19-1.19-8.93-2.29-0.22-1.93 1.45-2.48 0.9-4.67-2.18 0.4-4.91 0-7.48-0.79-0.84-2.19 3.13-0.94 2.57-2.83h0.22c-0.22-0.3-0.22-0.75-0.34-1 0-0.54 0.56-0.94 1.18-0.94 0.67 0 1.34 0.4 1.45 0.94v0.25c0.56 0 1.11 0 1.5 0-0.22-1.99-2.51-2.43-3.29-4.17 0.11-0.85 2.12-0.4 1.68-1.84-4.64-2.29-0.23-9.94 4.91-8.2h0.22c0.22-0.55 1-0.74 1.67-0.74l0.34 0.74c-0.12 0-0.34 0.25-0.67 0.25 0.33 3.58-2.63 5.02-3.3 7.95 5.81-0.75 10.33-1.54 14.79-1.74-0.5-4.92 5.75-4.92 8.15-7.75-0.56-3.28 5.24-4.92 8.2-7.21h0.33c-0.45-0.44-0.78-0.99-0.89-1.33l-0.17 0.14c-4.18-0.44-8.81-0.79-12.33-1.89 1.01-0.94 0.11-3.47 1.67-4.12-0.44 1.84 2.18 2.18 2.4 0.65-2.06-1.54-4.18-2.84-8.65-2.54-0.22 0.35-0.33 0.8-0.66 1.24-0.23 0.55-1.01 0.75-1.68 0.65-0.61-0.25-0.83-0.79-0.61-1.19 0.33-0.7 0.56-1 0.84-1.54l0.11-0.2c0-0.25 0-0.45 0-0.7q-1.61 0-3.29 0c-3.8-6.11-13.56-2.93-23.55-2.93v-0.2c-0.33 0.1-0.55 0.2-0.89 0.2-3.51 1-8.09 1.19-10.65 2.93-1.18-0.2-1.4-0.94-2.4-1.19 0.67-4.02 7.92-6.11 12.83-3.73q0.16 0 0.33 0c8.09-5.96 21.7-4.22 34.2-5.21 3.52 2.63 4.07 7.3 9.04 8.94 2.29-1.54 7.53-0.74 10.6-1.74 0.11-4.37 4.41-5.57 10.66-5.57 2.17 2.19 3.51 4.68 5.69 6.76 4.74-2.48 5.8-0.54 11.43 0 2.07 2.94 2.29 3.83 2.51 7.76 0.78-0.55 4.3 0.99 5.58 1.73 3.63 2.29 5.91 5.47 5.69 9.64 4.86 1.2 6.7 0.95 9.88 3.58 2.12-0.99 2.73-2.38 5.69-1.19-0.84-1-0.84-1.44 0-2.39q1.69 0 3.29 0v5.77 4.72 106.82 2.88 28.27 5.67 5.46 2.83 1.4 10.28 8.6 21.41 1.54 15.8 74.78h-265.73-8.09-147.11-0.84-2.01-1.95-99.03-1395.24zm1354.4-61.56v0.65z"/>
</svg>